<svg xmlns="http://www.w3.org/2000/svg" viewBox="0 0 512 512" role="img" aria-label="Personal logo mark">
  <!-- Three-fold rotational mark digitized from hand sketch. Thick outline, rounded M-tips. -->
  <g fill="none" stroke="#0a0a0a" stroke-width="28" stroke-linejoin="round" stroke-linecap="round">
    <path d="
      M 256 168
      C 236 168 218 178 208 196
      C 196 218 176 236 148 244
      C 118 254 98 278 98 308
      C 98 338 118 358 148 352
      C 168 348 186 336 198 318
      C 208 302 222 292 240 288
      C 248 286 252 278 256 268
      C 260 278 264 286 272 288
      C 290 292 304 302 314 318
      C 326 336 344 348 364 352
      C 394 358 414 338 414 308
      C 414 278 394 254 364 244
      C 336 236 316 218 304 196
      C 294 178 276 168 256 168
      Z
    " transform="rotate(0 256 256)"/>
  </g>
  <!-- Cleaner path: single closed outline approximating the sketch -->
  <path fill="#0a0a0a" fill-rule="evenodd" d="
    M256 96
    c-18 0-34 8-46 24
    c-14 20-36 36-62 44
    c-40 12-68 44-68 84
    c0 42 30 70 72 62
    c22-4 42-18 56-38
    c10-14 24-24 40-28
    c6-2 10-8 14-18
    c4 10 8 16 14 18
    c16 4 30 14 40 28
    c14 20 34 34 56 38
    c42 8 72-20 72-62
    c0-40-28-72-68-84
    c-26-8-48-24-62-44
    c-12-16-28-24-46-24
    z

    M256 200
    c12 0 22 10 28 24
    c8 18 22 32 40 38
    c20 6 34 22 34 42
    c0 22-16 36-38 32
    c-18-4-34-16-44-32
    c-8-12-18-20-20-28
    c-2 8-12 16-20 28
    c-10 16-26 28-44 32
    c-22 4-38-10-38-32
    c0-20 14-36 34-42
    c18-6 32-20 40-38
    c6-14 16-24 28-24
    z
  "/>
</svg>
